<?xml version="1.0" encoding="UTF-8"?><svg id="Laag_1" xmlns="http://www.w3.org/2000/svg" viewBox="0 0 269.29 269.64"><defs><style>.cls-1{fill:#006778;}.cls-2{fill:#ef8000;}</style></defs><path class="cls-1" d="M67.91,68.11c3.55,0,7.1-1.31,9.88-3.95,18.33-17.41,42.36-27,67.66-27,20.37,0,39.91,6.22,56.32,17.73l-108.67,114.78c-5.45,5.76-5.2,14.84.56,20.29,2.77,2.63,6.32,3.93,9.86,3.93,3.8,0,7.6-1.51,10.42-4.48l119.26-125.98h0c1.28-1.35,2.21-2.89,2.86-4.52.04-.11.11-.2.15-.31.26-.71.43-1.44.58-2.17.03-.17.11-.33.13-.51.11-.69.13-1.39.14-2.08,0-.22.05-.44.04-.67-.02-.75-.14-1.49-.27-2.23-.03-.17-.03-.34-.06-.51-.16-.73-.42-1.44-.7-2.15-.06-.16-.09-.33-.16-.49-.75-1.71-1.85-3.3-3.29-4.67-23.63-22.35-54.6-34.66-87.18-34.66s-63.73,12.39-87.43,34.89c-5.75,5.46-5.98,14.54-.52,20.29,2.82,2.97,6.61,4.47,10.41,4.47Z"/><path class="cls-2" d="M232.6,206.29c-5.45-5.76-14.53-6.01-20.29-.57-18.31,17.31-37.73,25.76-67.49,26.85-54.36,1.99-96.38-44.16-98.27-98.27-.4-11.55,1.99-22.88,5.92-33.68,2.71-7.45-1.13-15.68-8.58-18.39-7.45-2.72-15.68,1.13-18.39,8.58-5.07,13.95-7.56,28.58-7.65,43.49-.43,71.29,56.96,126.97,126.97,126.97,32.58,0,63.55-12.32,87.21-34.7,5.76-5.44,6.01-14.53.57-20.29h0Z"/><path class="cls-1" d="M232.6,206.29c-5.45-5.76-14.53-6.01-20.29-.57-18.31,17.31-42.28,26.85-67.49,26.85-29.47,0-46.57-8.21-66.82-26.08-6.21-5.48-14.08-8.71-22.3-1.08-5.84,5.42-3.75,15.85.42,20.02,17.54,17.54,49.32,35.84,88.7,35.84,32.58,0,63.55-12.32,87.21-34.7,5.76-5.44,6.01-14.53.57-20.29h0Z"/></svg>