<?xml version="1.0" encoding="UTF-8"?><svg id="Laag_1" xmlns="http://www.w3.org/2000/svg" xmlns:xlink="http://www.w3.org/1999/xlink" viewBox="0 0 952.78 269.64"><defs><style>.cls-1{fill:none;}.cls-2{fill:#006778;}.cls-3{fill:#ef8000;}.cls-4{clip-path:url(#clippath);}</style><clipPath id="clippath"><rect class="cls-1" x="1.33" width="951.45" height="269.63"/></clipPath></defs><path class="cls-2" d="M50.06,60.11c3.55,0,7.1-1.31,9.88-3.95,18.33-17.41,42.36-27,67.66-27,20.37,0,39.91,6.22,56.32,17.73l-108.67,114.78c-5.45,5.76-5.2,14.84.56,20.29,2.77,2.63,6.32,3.93,9.86,3.93,3.8,0,7.6-1.51,10.42-4.48l119.26-125.98s0,0,.01,0c1.28-1.35,2.21-2.89,2.86-4.52.04-.11.11-.2.15-.31.26-.71.43-1.44.58-2.17.03-.17.11-.33.13-.51.11-.69.13-1.39.14-2.08,0-.22.05-.44.04-.67-.02-.75-.14-1.49-.27-2.23-.03-.17-.03-.34-.06-.51-.16-.73-.42-1.44-.7-2.15-.06-.16-.09-.33-.16-.49-.75-1.71-1.85-3.3-3.29-4.67C191.15,12.77,160.18.46,127.6.46S63.87,12.85,40.17,35.35c-5.75,5.46-5.98,14.54-.52,20.29,2.82,2.97,6.61,4.47,10.41,4.47Z"/><path class="cls-3" d="M214.75,198.29c-5.45-5.76-14.53-6.01-20.29-.57-18.31,17.31-37.73,25.76-67.49,26.85-54.36,1.99-96.38-44.16-98.27-98.27-.4-11.55,1.99-22.88,5.92-33.68,2.71-7.45-1.13-15.68-8.58-18.39-7.45-2.72-15.68,1.13-18.39,8.58C2.58,96.76.09,111.39,0,126.3c-.43,71.29,56.96,126.97,126.97,126.97,32.58,0,63.55-12.32,87.21-34.7,5.76-5.44,6.01-14.53.57-20.29Z"/><path class="cls-2" d="M214.75,198.29c-5.45-5.76-14.53-6.01-20.29-.57-18.31,17.31-42.28,26.85-67.49,26.85-29.47,0-46.57-8.21-66.82-26.08-6.21-5.48-14.08-8.71-22.3-1.08-5.84,5.42-3.75,15.85.42,20.02,17.54,17.54,49.32,35.84,88.7,35.84,32.58,0,63.55-12.32,87.21-34.7,5.76-5.44,6.01-14.53.57-20.29Z"/><g id="logo"><g class="cls-4"><g id="Group_2"><path id="Path_3" class="cls-2" d="M943.21,236.67l-.61-.03v2.91c0,.3-.08.6-.24.86-.19.16-.44.24-.69.23-.24.02-.47-.07-.62-.25-.2-.23-.3-.53-.28-.83v-6.92c-.01-.31.08-.61.28-.85.24-.21.56-.31.87-.27h2.95c.34,0,.68.02,1.02.06.27.02.54.09.78.21.29.11.54.29.73.53.23.21.41.47.52.75.09.3.15.61.17.92,0,.59-.2,1.17-.56,1.64-.49.43-1.1.72-1.75.82.36.18.68.44.92.77.32.32.58.68.79,1.08.21.32.39.65.55,1,.09.2.15.41.19.62,0,.14-.05.28-.12.4-.07.12-.18.21-.31.25-.13.07-.27.1-.42.1-.19,0-.38-.05-.56-.12-.12-.12-.23-.25-.32-.39-.11-.15-.23-.39-.43-.64l-.73-1.2c-.18-.38-.41-.73-.69-1.05-.18-.2-.4-.36-.64-.48-.26-.09-.53-.13-.81-.11M944.26,232.93h-1.67v2.44s1.63-.03,1.63-.03c.37.03.75,0,1.12-.07.25-.05.48-.19.65-.39.18-.22.26-.49.23-.77,0-.23-.06-.45-.17-.65-.14-.19-.32-.34-.53-.43-.41-.11-.84-.15-1.27-.1"/><path id="Path_4" class="cls-2" d="M935.86,235.82c.09-4.67,3.94-8.39,8.61-8.31,4.57.08,8.24,3.77,8.31,8.34-.09,4.67-3.94,8.39-8.61,8.31-4.57-.08-8.24-3.77-8.31-8.34M937.63,235.83c0,3.69,2.98,6.68,6.67,6.69s6.68-2.98,6.69-6.67c0-3.68-2.97-6.67-6.65-6.69-3.66-.04-6.66,2.89-6.7,6.55,0,.04,0,.08,0,.12"/><path id="Path_5" class="cls-2" d="M340.31,241.34h-5.49v-47.64c0-15.68-6.98-23.53-20.93-23.53-7.49-.27-14.68,2.92-19.5,8.66-5.02,6.08-7.63,13.78-7.36,21.65v40.86h-5.48v-74.2h5.49v16.74c1.66-5.42,5.14-10.11,9.84-13.28,4.86-3.44,10.69-5.26,16.64-5.2,8.78,0,15.43,2.31,19.97,6.93,4.54,4.62,6.81,11.41,6.81,20.35v48.65Z"/><path id="Path_6" class="cls-2" d="M418.27,216.08c-1.03,7.75-4.79,14.88-10.61,20.1-6.06,4.87-13.68,7.37-21.44,7.03-10.49,0-18.62-3.45-24.4-10.34-5.78-6.89-8.67-16.46-8.66-28.71,0-11.48,3.06-20.8,9.17-27.98,11.75-13.24,32-14.45,45.24-2.7.92.82,1.8,1.69,2.62,2.61,5.91,7.23,8.99,16.36,8.67,25.69v3.17h-60.21c0,9.96,2.45,18.03,7.34,24.21,4.88,6.18,12.44,9.63,20.3,9.28,6.39.26,12.63-1.95,17.43-6.17,4.6-4.29,7.65-9.99,8.64-16.2h5.9ZM358.63,200.2h54.43c.25-7.9-2.58-15.58-7.88-21.44-4.81-5.53-11.8-8.67-19.12-8.59-7.75-.07-15.08,3.51-19.78,9.67-4.52,5.87-7.19,12.96-7.66,20.36"/><path id="Path_7" class="cls-2" d="M442.51,223.73c0,4.81.95,8.16,2.85,10.03,1.89,1.88,5.12,2.82,9.68,2.82h3.65v4.76h-3.64c-6.29,0-10.87-1.32-13.73-3.96-2.86-2.64-4.29-6.8-4.28-12.46v-53.02h-13.71v-4.76h13.71v-23.1h5.48v23.1h16.17v4.76h-16.17v51.83Z"/><path id="Path_8" class="cls-2" d="M515.16,167.14l20.57,68.63,20.97-68.59,5.76-.05-23.66,74.2h-6.82l-20.45-67.63-20.61,67.64h-6.97l-23.53-74.21h5.91l21.07,68.35,20.37-68.35h7.39Z"/><path id="Path_9" class="cls-2" d="M635.08,204.31c0,11.77-3.1,21.2-9.31,28.28-6.27,7.12-15.42,11.02-24.9,10.63-9.43.38-18.51-3.56-24.68-10.7-6.15-7.13-9.22-16.53-9.22-28.2s3.1-21.19,9.31-28.28c6.27-7.12,15.42-11.02,24.89-10.64,9.43-.38,18.52,3.56,24.69,10.7,6.16,7.14,9.23,16.54,9.24,28.21M629.61,204.31c0-10.12-2.63-18.34-7.88-24.67-9.89-11.44-27.18-12.7-38.62-2.81-1,.87-1.94,1.8-2.81,2.81-5.25,6.32-7.87,14.54-7.86,24.67,0,10.13,2.63,18.35,7.86,24.67,9.89,11.44,27.18,12.7,38.62,2.81,1-.87,1.94-1.8,2.81-2.81,5.25-6.32,7.87-14.54,7.88-24.67"/><path id="Path_10" class="cls-2" d="M653.43,241.34h-5.5v-74.2h5.5v17.47c1.82-5.55,5.59-10.24,10.61-13.21,4.78-3.02,10.3-4.64,15.95-4.69h2.45v5.19h-1.87c-7.36-.23-14.46,2.72-19.5,8.08-5.2,5.64-7.96,13.12-7.66,20.79v40.57Z"/><path id="Path_11" class="cls-2" d="M688.37,138.26h5.49v68.29l45.77-39.41h7.94s-32.54,27.65-32.54,27.65l34.83,46.55-7.54.03-31.44-42.25-17.03,14.47v27.75h-5.49v-103.08Z"/><path id="Path_12" class="cls-2" d="M756.22,138.26h5.49v14.86h-5.49v-14.86ZM761.7,241.34h-5.49v-74.2h5.49v74.2Z"/><path id="Path_13" class="cls-2" d="M837.92,241.34h-5.48v-47.64c0-15.68-6.98-23.53-20.94-23.53-7.49-.27-14.68,2.92-19.5,8.66-5.02,6.08-7.63,13.78-7.36,21.65v40.86h-5.49v-74.2h5.49v16.74c1.67-5.42,5.14-10.11,9.84-13.28,4.86-3.45,10.69-5.27,16.65-5.2,8.78,0,15.44,2.31,19.98,6.93,4.54,4.62,6.8,11.41,6.8,20.35v48.65Z"/><path id="Path_14" class="cls-2" d="M910.1,221.13c-4.37,10.73-14.9,17.67-26.48,17.47-10.42,0-18.5-3.2-24.24-9.6-5.74-6.4-8.61-15.37-8.61-26.93,0-11.07,2.94-20.02,8.81-26.85,5.82-6.81,14.43-10.59,23.38-10.25,5.93-.04,11.71,1.86,16.46,5.41,4.9,3.6,8.42,8.77,9.96,14.66v-18.05h6.22v70.89c0,21.17-10.64,31.76-31.91,31.76-8.85,0-15.54-1.59-20.06-4.77-5.29-3.76-8.37-9.87-9.24-18.33h5.5c.19,5.42,2.79,10.48,7.09,13.79,4.92,3.26,10.76,4.85,16.65,4.55,8.68,0,15.27-2.29,19.75-6.86,4.49-4.57,6.73-11.53,6.73-20.86v-16.03ZM910.1,202.51c0-9.82-2.45-17.73-7.34-23.75-9.25-10.82-25.52-12.09-36.34-2.84-.99.85-1.92,1.77-2.78,2.77-4.93,5.96-7.4,13.81-7.4,23.53,0,9.53,2.42,17.18,7.25,22.95,9.77,10.79,26.43,11.61,37.21,1.84.67-.61,1.31-1.25,1.91-1.92,5.17-6.36,7.82-14.4,7.47-22.59"/><path id="Path_15" class="cls-2" d="M302.98,73.34c0,15.95,8.67,30.14,27.38,30.14,13,0,20.87-5.71,24.81-16.94h21.28c-4.93,22.25-23.84,34.66-46.09,34.66-31.91,0-49.83-22.26-49.83-53.58,0-28.95,18.9-53.77,49.24-53.77,32.11,0,51.8,28.96,48.06,59.48h-74.84ZM355.37,58.57c-.78-14.18-10.44-26.99-25.61-26.99s-26.19,11.81-26.78,26.98h52.39Z"/><path id="Path_16" class="cls-2" d="M391.42,16.62h82.72v15.75l-58.3,68.35h61.25v17.73h-89.62v-15.76l56.33-68.35h-52.39v-17.72Z"/></g></g></g></svg>