<?xml version="1.0" encoding="UTF-8" standalone="no"?>
<!-- Generator: Adobe Illustrator 27.6.1, SVG Export Plug-In . SVG Version: 6.00 Build 0)  -->

<svg
   version="1.1"
   id="Laag_1"
   x="0px"
   y="0px"
   viewBox="0 0 558.99351 158.39999"
   xml:space="preserve"
   sodipodi:docname="ezNetworkingLogoTeal.svg"
   width="558.99353"
   height="158.39999"
   inkscape:version="1.4.2 (f4327f4, 2025-05-13)"
   xmlns:inkscape="http://www.inkscape.org/namespaces/inkscape"
   xmlns:sodipodi="http://sodipodi.sourceforge.net/DTD/sodipodi-0.dtd"
   xmlns:xlink="http://www.w3.org/1999/xlink"
   xmlns="http://www.w3.org/2000/svg"
   xmlns:svg="http://www.w3.org/2000/svg"><defs
   id="defs2" /><sodipodi:namedview
   id="namedview1"
   pagecolor="#ffffff"
   bordercolor="#000000"
   borderopacity="0.25"
   inkscape:showpageshadow="2"
   inkscape:pageopacity="0.0"
   inkscape:pagecheckerboard="0"
   inkscape:deskcolor="#d1d1d1"
   inkscape:zoom="3.1801099"
   inkscape:cx="271.68873"
   inkscape:cy="114.61868"
   inkscape:window-width="2880"
   inkscape:window-height="1514"
   inkscape:window-x="-11"
   inkscape:window-y="-11"
   inkscape:window-maximized="1"
   inkscape:current-layer="Laag_1" />
<style
   type="text/css"
   id="style1">
	.st0{clip-path:url(#SVGID_00000047020048833352910240000004324100725470418623_);}
	.st1{fill:#024D5E;}
</style>
<g
   id="logo"
   transform="translate(-4.406485,-11.2)">
	<g
   id="g1">
		<defs
   id="defs1">
			<rect
   id="SVGID_1_"
   x="4.4000001"
   y="11.2"
   width="559"
   height="158.39999" />
		</defs>
		<clipPath
   id="SVGID_00000023276750722352383690000017473187404694863234_">
			<use
   xlink:href="#SVGID_1_"
   style="overflow:visible"
   id="use1" />
		</clipPath>
		<g
   id="Group_2"
   clip-path="url(#SVGID_00000023276750722352383690000017473187404694863234_)">
			<path
   id="Path_1"
   class="st1"
   d="m 33.3,46.1 c 2.1,0 4.2,-0.8 5.8,-2.3 19.8,-18.8 50,-21 72.4,-5.4 l -63.5,67 c -3.2,3.4 -3,8.7 0.3,11.8 3.4,3.2 8.7,3 11.8,-0.3 l 69.6,-73.6 v 0 c 0.7,-0.8 1.3,-1.7 1.7,-2.6 0,-0.1 0.1,-0.1 0.1,-0.2 0.1,-0.4 0.3,-0.8 0.3,-1.3 0,-0.1 0.1,-0.2 0.1,-0.3 0.1,-0.4 0.1,-0.8 0.1,-1.2 0,-0.1 0,-0.3 0,-0.4 0,-0.4 -0.1,-0.9 -0.2,-1.3 0,-0.1 0,-0.2 0,-0.3 -0.1,-0.4 -0.2,-0.8 -0.4,-1.3 0,-0.1 -0.1,-0.2 -0.1,-0.3 -0.5,-1 -1.1,-2 -1.9,-2.7 -28.6,-27 -73.4,-27 -102,0.1 -3.4,3.2 -3.5,8.5 -0.3,11.8 1.7,1.8 3.9,2.8 6.2,2.8" />
			<path
   id="Path_2"
   class="st1"
   d="m 129.8,127.4 c -3.2,-3.4 -8.5,-3.5 -11.8,-0.3 0,0 0,0 0,0 C 94.9,148.9 58.6,147.8 36.8,124.7 21.9,108.9 17.2,86.1 24.6,65.7 26.3,61.4 24.1,56.5 19.8,54.9 15.5,53.2 10.6,55.4 9,59.7 9,59.8 8.9,59.9 8.9,60 c -14,38.5 5.8,81 44.3,95.1 26.4,9.6 55.9,3.5 76.3,-15.8 3.4,-3.2 3.5,-8.5 0.3,-11.9 0,0 0,0 0,0" />
			<path
   id="Path_3"
   class="st1"
   d="m 557.8,150.3 h -0.4 v 1.7 c 0,0.2 0,0.4 -0.1,0.5 -0.1,0.1 -0.3,0.1 -0.4,0.1 -0.1,0 -0.3,0 -0.4,-0.1 -0.1,-0.1 -0.2,-0.3 -0.2,-0.5 v -4.1 c 0,-0.2 0,-0.4 0.2,-0.5 0.1,-0.1 0.3,-0.2 0.5,-0.2 h 1.7 c 0.2,0 0.4,0 0.6,0 0.2,0 0.3,0.1 0.5,0.1 0.2,0.1 0.3,0.2 0.4,0.3 0.1,0.1 0.2,0.3 0.3,0.4 0.1,0.2 0.1,0.4 0.1,0.5 0,0.3 -0.1,0.7 -0.3,1 -0.3,0.3 -0.6,0.4 -1,0.5 0.2,0.1 0.4,0.3 0.5,0.5 0.2,0.2 0.3,0.4 0.5,0.6 0.1,0.2 0.2,0.4 0.3,0.6 0.1,0.1 0.1,0.2 0.1,0.4 0,0.1 0,0.2 -0.1,0.2 0,0.1 -0.1,0.1 -0.2,0.1 -0.1,0 -0.2,0.1 -0.2,0.1 -0.1,0 -0.2,0 -0.3,-0.1 -0.1,-0.1 -0.1,-0.1 -0.2,-0.2 -0.1,-0.1 -0.1,-0.2 -0.3,-0.4 l -0.4,-0.7 c -0.1,-0.2 -0.2,-0.4 -0.4,-0.6 -0.1,-0.1 -0.2,-0.2 -0.4,-0.3 0,0.1 -0.2,0.1 -0.4,0.1 m 0.7,-2.2 h -1 v 1.4 h 1 c 0.2,0 0.4,0 0.7,0 0.1,0 0.3,-0.1 0.4,-0.2 0.1,-0.1 0.2,-0.3 0.1,-0.5 0,-0.1 0,-0.3 -0.1,-0.4 -0.1,-0.1 -0.2,-0.2 -0.3,-0.3 -0.3,0 -0.6,0 -0.8,0" />
			<path
   id="Path_4"
   class="st1"
   d="m 553.5,149.8 c 0.1,-2.7 2.3,-4.9 5.1,-4.9 2.7,0 4.8,2.2 4.9,4.9 -0.1,2.7 -2.3,4.9 -5.1,4.9 -2.7,0 -4.8,-2.2 -4.9,-4.9 m 1.1,0 c 0,2.2 1.8,3.9 3.9,3.9 2.2,0 3.9,-1.8 3.9,-3.9 0,-2.2 -1.7,-3.9 -3.9,-3.9 -2.2,0 -3.9,1.7 -3.9,3.9 0,0 0,0 0,0" />
			<path
   id="Path_5"
   class="st1"
   d="m 203.6,153 h -3.2 v -28 c 0,-9.2 -4.1,-13.8 -12.3,-13.8 -4.4,-0.2 -8.6,1.7 -11.5,5.1 -2.9,3.6 -4.5,8.1 -4.3,12.7 v 24 h -3.2 v -43.6 h 3.2 v 9.8 c 1,-3.2 3,-5.9 5.8,-7.8 2.9,-2 6.3,-3.1 9.8,-3.1 5.2,0 9.1,1.4 11.7,4.1 2.7,2.7 4,6.7 4,12 z" />
			<path
   id="Path_6"
   class="st1"
   d="m 249.4,138.2 c -0.6,4.6 -2.8,8.7 -6.2,11.8 -3.6,2.9 -8,4.3 -12.6,4.1 -6.2,0 -10.9,-2 -14.3,-6.1 -3.4,-4.1 -5.1,-9.7 -5.1,-16.9 0,-6.7 1.8,-12.2 5.4,-16.4 6.9,-7.8 18.8,-8.5 26.6,-1.6 0.5,0.5 1.1,1 1.5,1.5 3.5,4.2 5.3,9.6 5.1,15.1 v 1.9 h -35.4 c 0,5.9 1.4,10.6 4.3,14.2 2.9,3.6 7.3,5.7 11.9,5.5 3.8,0.2 7.4,-1.1 10.2,-3.6 2.7,-2.5 4.5,-5.9 5.1,-9.5 z m -35,-9.3 h 32 c 0.1,-4.6 -1.5,-9.2 -4.6,-12.6 -2.8,-3.2 -6.9,-5.1 -11.2,-5 -4.6,0 -8.9,2.1 -11.6,5.7 -2.8,3.4 -4.4,7.5 -4.6,11.9" />
			<path
   id="Path_7"
   class="st1"
   d="m 263.6,142.7 c 0,2.8 0.6,4.8 1.7,5.9 1.1,1.1 3,1.7 5.7,1.7 h 2.1 v 2.8 H 271 c -3.7,0 -6.4,-0.8 -8.1,-2.3 -1.7,-1.6 -2.5,-4 -2.5,-7.3 v -31.2 h -8.1 v -2.8 h 8.1 V 95.9 h 3.2 v 13.6 h 9.5 v 2.8 h -9.5 z" />
			<path
   id="Path_8"
   class="st1"
   d="m 306.3,109.5 12.1,40.3 12.3,-40.3 h 3.4 l -13.9,43.6 h -4 l -12,-39.7 -12.1,39.7 H 288 l -13.8,-43.6 h 3.5 l 12.4,40.2 12,-40.2 z" />
			<path
   id="Path_9"
   class="st1"
   d="m 376.8,131.3 c 0,6.9 -1.8,12.5 -5.5,16.6 -3.7,4.2 -9.1,6.5 -14.6,6.2 -5.5,0.2 -10.9,-2.1 -14.5,-6.3 -3.6,-4.2 -5.4,-9.7 -5.4,-16.6 0,-6.9 1.8,-12.4 5.5,-16.6 3.7,-4.2 9.1,-6.5 14.6,-6.2 5.5,-0.2 10.9,2.1 14.5,6.3 3.6,4.2 5.4,9.7 5.4,16.6 m -3.2,0 c 0,-5.9 -1.5,-10.8 -4.6,-14.5 -5.8,-6.7 -16,-7.5 -22.7,-1.6 -0.6,0.5 -1.1,1.1 -1.6,1.6 -3.1,3.7 -4.6,8.5 -4.6,14.5 0,5.9 1.5,10.8 4.6,14.5 5.8,6.7 16,7.5 22.7,1.6 0.6,-0.5 1.1,-1.1 1.6,-1.6 3,-3.7 4.6,-8.6 4.6,-14.5" />
			<path
   id="Path_10"
   class="st1"
   d="m 387.6,153 h -3.2 v -43.6 h 3.2 v 10.3 c 1.1,-3.3 3.3,-6 6.2,-7.8 2.8,-1.8 6.1,-2.7 9.4,-2.8 h 1.4 v 3.1 h -1.1 c -4.3,-0.1 -8.5,1.6 -11.5,4.8 -3.1,3.3 -4.7,7.7 -4.5,12.2 z" />
			<path
   id="Path_11"
   class="st1"
   d="m 408.1,92.5 h 3.2 v 40.1 l 26.9,-23.2 h 4.7 l -19.1,16.2 20.5,27.3 h -4.4 l -18.5,-24.8 -10,8.5 v 16.3 h -3.2 z" />
			<path
   id="Path_12"
   class="st1"
   d="m 448,92.5 h 3.2 v 8.7 H 448 Z m 3.2,60.5 H 448 v -43.6 h 3.2 z" />
			<path
   id="Path_13"
   class="st1"
   d="m 496,153 h -3.2 v -28 c 0,-9.2 -4.1,-13.8 -12.3,-13.8 -4.4,-0.2 -8.6,1.7 -11.5,5.1 -2.9,3.6 -4.5,8.1 -4.3,12.7 v 24 h -3.2 v -43.6 h 3.2 v 9.8 c 1,-3.2 3,-5.9 5.8,-7.8 2.9,-2 6.3,-3.1 9.8,-3.1 5.2,0 9.1,1.4 11.7,4.1 2.7,2.7 4,6.7 4,12 z" />
			<path
   id="Path_14"
   class="st1"
   d="m 538.4,141.2 c -2.6,6.3 -8.8,10.4 -15.6,10.3 -6.1,0 -10.9,-1.9 -14.2,-5.6 -3.4,-3.8 -5.1,-9 -5.1,-15.8 0,-6.5 1.7,-11.8 5.2,-15.8 3.4,-4 8.5,-6.2 13.7,-6 3.5,0 6.9,1.1 9.7,3.2 2.9,2.1 4.9,5.2 5.9,8.6 v -10.6 h 3.7 V 151 c 0,12.4 -6.2,18.7 -18.7,18.7 -5.2,0 -9.1,-0.9 -11.8,-2.8 -3.1,-2.2 -4.9,-5.8 -5.4,-10.8 h 3.2 c 0.1,3.2 1.6,6.2 4.2,8.1 2.9,1.9 6.3,2.8 9.8,2.7 5.1,0 9,-1.3 11.6,-4 2.6,-2.7 4,-6.8 4,-12.3 z m 0,-11 c 0,-5.8 -1.4,-10.4 -4.3,-14 -5.4,-6.4 -15,-7.1 -21.4,-1.7 -0.6,0.5 -1.1,1 -1.6,1.6 -2.9,3.5 -4.3,8.1 -4.3,13.8 0,5.6 1.4,10.1 4.3,13.5 5.7,6.3 15.5,6.8 21.9,1.1 0.4,-0.4 0.8,-0.7 1.1,-1.1 2.9,-3.6 4.5,-8.4 4.3,-13.2" />
			<path
   id="Path_15"
   class="st1"
   d="m 181.7,54.3 c 0,9.4 5.1,17.7 16.1,17.7 7.6,0 12.3,-3.4 14.6,-10 h 12.5 c -2.9,13.1 -14,20.4 -27.1,20.4 -18.7,0 -29.3,-13.1 -29.3,-31.5 0,-17 11.1,-31.6 28.9,-31.6 18.9,0 30.4,17 28.2,34.9 h -43.9 z m 30.7,-8.6 c -0.5,-8.3 -6.1,-15.9 -15,-15.9 -9.1,0 -15.4,6.9 -15.7,15.9 z" />
			<path
   id="Path_16"
   class="st1"
   d="m 233.6,21 h 48.6 v 9.3 L 248,70.4 h 36 v 10.4 h -52.7 v -9.3 l 33.1,-40.2 h -30.8 z" />
		</g>
	</g>
</g>
</svg>
